<?xml version="1.0" standalone="no"?>
<!DOCTYPE svg PUBLIC "-//W3C//DTD SVG 20010904//EN"
 "http://www.w3.org/TR/2001/REC-SVG-20010904/DTD/svg10.dtd">
<svg version="1.0" xmlns="http://www.w3.org/2000/svg"
 width="1080.000000pt" height="1080.000000pt" viewBox="0 0 1080.000000 1080.000000"
 preserveAspectRatio="xMidYMid meet">

<g transform="translate(0.000000,1080.000000) scale(0.100000,-0.100000)"
fill="#7D256F" stroke="none">
<path d="M5100 10789 c-1598 -91 -3057 -873 -4020 -2154 -879 -1170 -1242
-2657 -1005 -4112 242 -1487 1102 -2806 2370 -3639 1425 -935 3227 -1139 4825
-547 955 354 1774 956 2405 1768 825 1061 1222 2429 1099 3785 -136 1498 -880
2853 -2079 3785 -1008 784 -2310 1187 -3595 1114z m-3074 -3556 c7 -33 87
-329 228 -853 24 -91 66 -244 91 -340 26 -96 67 -247 90 -335 24 -88 65 -239
90 -335 26 -96 67 -247 91 -335 77 -284 132 -488 155 -578 25 -98 28 -98 57
13 11 41 36 127 55 190 20 63 42 140 50 170 8 30 47 165 87 300 40 135 80 274
90 310 10 36 43 153 75 260 56 192 110 376 198 680 25 85 71 243 102 350 32
107 66 227 77 265 10 39 33 114 49 168 l30 97 281 -2 281 -3 29 -95 c16 -52
37 -126 47 -165 10 -38 44 -158 76 -265 31 -107 77 -265 101 -350 25 -85 70
-240 101 -345 31 -104 68 -235 83 -290 15 -55 57 -201 93 -325 36 -124 86
-297 112 -385 26 -88 62 -212 79 -275 88 -308 109 -380 115 -380 4 0 17 39 30
88 37 138 108 402 156 582 25 91 65 242 90 335 56 211 112 419 172 640 25 94
65 244 90 335 24 91 64 239 89 330 83 306 129 479 141 530 l9 35 322 3 c177 1
322 -1 322 -4 0 -6 -72 -263 -166 -594 -87 -304 -133 -467 -178 -625 -24 -88
-66 -234 -92 -325 -85 -301 -131 -463 -179 -635 -26 -93 -65 -228 -85 -300
-21 -71 -61 -212 -89 -312 -49 -175 -87 -310 -205 -728 l-54 -190 -353 0 -353
0 -31 105 c-18 58 -54 179 -80 270 -26 91 -66 230 -90 310 -23 80 -63 219 -90
310 -26 91 -67 233 -91 315 -24 83 -64 220 -88 305 -25 85 -82 281 -127 435
-45 154 -87 303 -94 330 -36 136 -90 304 -96 298 -7 -8 -44 -130 -139 -458
-29 -99 -60 -207 -70 -240 -10 -33 -49 -163 -85 -290 -129 -445 -157 -541
-187 -640 -16 -55 -36 -122 -44 -150 -7 -27 -31 -111 -53 -185 -22 -74 -63
-216 -91 -315 -29 -99 -68 -231 -87 -292 l-34 -113 -350 0 -349 0 -10 23 c-5
12 -37 121 -70 242 -65 233 -120 424 -177 620 -19 66 -43 152 -53 190 -10 39
-55 198 -99 355 -45 157 -118 413 -163 570 -44 157 -89 317 -100 355 -10 39
-34 124 -53 190 -19 66 -57 201 -85 300 -28 99 -60 209 -70 245 -11 36 -35
121 -54 190 -19 69 -53 190 -75 269 -23 79 -41 150 -41 157 0 12 57 14 320 14
l320 0 6 -27z m6290 17 c268 -26 484 -129 680 -324 192 -192 284 -419 284
-700 0 -126 -10 -195 -46 -309 -45 -145 -106 -241 -229 -362 l-92 -90 56 -33
c177 -103 316 -269 392 -466 76 -198 83 -478 17 -686 -91 -286 -324 -533 -611
-650 -216 -87 -282 -92 -1262 -88 l-780 3 -3 1858 -2 1857 743 0 c438 0 788
-4 853 -10z"/>
<path d="M7330 6195 l0 -485 468 0 c516 0 523 1 634 63 150 84 238 241 238
422 0 194 -97 353 -268 438 l-85 42 -494 3 -493 3 0 -486z"/>
<path d="M7337 5153 c-4 -3 -7 -237 -7 -520 l0 -513 528 0 c457 0 536 2 583
16 163 49 295 174 345 329 26 82 26 255 0 341 -54 177 -220 317 -411 345 -69
10 -1028 12 -1038 2z"/>
</g>
</svg>
