<?xml version="1.0" standalone="no"?>
<!DOCTYPE svg PUBLIC "-//W3C//DTD SVG 20010904//EN"
 "http://www.w3.org/TR/2001/REC-SVG-20010904/DTD/svg10.dtd">
<svg version="1.0" xmlns="http://www.w3.org/2000/svg"
 width="108.000000pt" height="110.000000pt" viewBox="0 0 108.000000 110.000000"
 preserveAspectRatio="xMidYMid meet">

<g transform="translate(0.000000,110.000000) scale(0.100000,-0.100000)"
fill="#000000" stroke="none">
<path d="M121 1042 c-19 -9 -44 -30 -55 -45 -20 -28 -21 -40 -21 -437 0 -397
1 -409 21 -437 46 -62 50 -63 474 -63 424 0 428 1 474 63 20 28 21 40 21 437
0 397 -1 409 -21 437 -46 62 -50 63 -474 63 -347 0 -388 -2 -419 -18z m435
-204 c-1 -26 -6 -43 -13 -44 -7 -1 -51 -2 -98 -3 l-85 -1 0 -95 0 -95 75 0 75
0 0 -45 0 -45 -75 0 -75 0 0 -135 0 -135 -55 0 -55 0 0 320 0 320 154 0 154 0
-2 -42z m324 -3 l0 -45 -95 0 -95 0 0 -95 0 -95 76 0 75 0 -3 -42 -3 -43 -72
-3 -73 -3 0 -134 0 -135 -55 0 -55 0 0 320 0 320 150 0 150 0 0 -45z"/>
</g>
</svg>
