<svg width="500" height="500" viewBox="0 0 500 500" fill="none" xmlns="http://www.w3.org/2000/svg">
<rect width="500" height="500" rx="41" fill="black"/>
<path d="M101 338.3H53V148.4H194V187.4H101V230.9H188V269.9H101V338.3ZM402.177 148.4H451.077L410.877 338.3H352.377C346.177 316.9 340.777 296 336.177 275.6C331.777 255.2 327.577 233.4 323.577 210.2H322.977C318.377 233.4 313.777 255.2 309.177 275.6C304.777 296 299.777 316.9 294.177 338.3H235.677L195.477 148.4H244.377C247.377 162.4 250.077 176.1 252.477 189.5C254.877 202.9 257.177 216.6 259.377 230.6C261.777 244.4 264.177 259.4 266.577 275.6H267.177C270.177 259.4 273.077 244.4 275.877 230.6C278.677 216.6 281.577 202.9 284.577 189.5C287.577 176.1 290.777 162.4 294.177 148.4H352.377C356.977 169.6 361.477 190.8 365.877 212C370.477 233.2 374.977 254.4 379.377 275.6H379.977C383.777 254.4 387.477 233.2 391.077 212C394.677 190.8 398.377 169.6 402.177 148.4Z" fill="white"/>
</svg>
